<svg version="1.2" baseProfile="tiny-ps" xmlns="http://www.w3.org/2000/svg" viewBox="0 0 1534 1534" width="1534" height="1534">
	<title>Agricultural_Bank_of_China_logo-svg</title>
	<defs>
		<clipPath clipPathUnits="userSpaceOnUse" id="cp1">
			<path d="M-7867.64 20026.54L15482.13 20026.54L15482.13 -11654.7L-7867.64 -11654.7L-7867.64 20026.54Z" />
		</clipPath>
	</defs>
	<style>
		tspan { white-space:pre }
		.shp0 { fill: #12806a } 
	</style>
	<g id="g18">
		<g id="g22">
			<g id="Clip-Path: g24" clip-path="url(#cp1)">
				<g id="g24">
					<g id="g38">
					</g>
					<g id="g58">
					</g>
					<g id="g70">
					</g>
					<g id="g102">
					</g>
					<g id="g106">
						<path id="path108" class="shp0" d="M831.96 7.22C810.78 5.42 789.52 4.59 767.91 4.59L765.2 4.59C744.57 4.63 724.1 5.53 703.82 7.22C695.97 7.85 688.2 8.67 680.44 9.61L680.44 443.02C680.44 464.47 697.97 482 719.35 482L811.02 482C832.47 482 850.09 464.47 850.09 443.02L850.09 8.91C844.05 8.28 837.97 7.81 831.96 7.22Z" />
					</g>
					<g id="g110">
						<path id="path112" class="shp0" d="M934.86 22.85L934.86 201.91L934.86 485.43C933.33 501.55 920.62 514.38 904.46 515.98L904.46 516.1L816.12 516.1C797.33 516.1 782.15 531.28 782.15 549.94L782.15 787.24C782.15 769.32 796.04 754.77 813.61 753.55L982.63 753.55C983.73 753.63 984.67 753.63 985.73 753.63C986.79 753.63 987.85 753.63 988.95 753.55C1000.44 752.53 1010.25 745.51 1015.58 735.75C1015.62 735.55 1015.7 735.47 1015.78 735.24C1016.56 733.79 1017.19 732.18 1017.82 730.57C1018.05 729.63 1018.44 728.65 1018.6 727.63C1018.84 726.96 1018.99 726.22 1018.99 725.39C1019.39 723.63 1019.5 721.98 1019.62 720.14L1019.62 719.9L1019.62 719.79L1019.62 719.75L1019.62 719.67L1019.62 719.47L1019.62 234.53C1219.98 329.79 1358.45 533.87 1358.45 770.34C1358.45 1069.08 1137.49 1316.26 850.01 1357.31L850.01 1024.61L982.63 1024.61C983.73 1024.69 984.67 1024.77 985.73 1024.77C986.79 1024.77 987.85 1024.69 988.95 1024.61C1006.09 1022.96 1019.62 1008.61 1019.62 990.92L1019.62 990.84L1019.62 990.77L1019.62 787.12L1019.62 753.24C1019.62 772.02 1004.48 787.12 985.73 787.12L816.12 787.12C797.33 787.12 782.15 802.34 782.15 821.04L782.15 1024.3L748.26 1024.3L748.26 821.04C748.26 802.34 733.12 787.12 714.37 787.12L544.72 787.12C525.97 787.12 510.68 772.02 510.68 753.24L510.68 990.92C510.95 1008.61 524.33 1022.96 541.62 1024.61C542.57 1024.69 543.62 1024.77 544.72 1024.77C545.7 1024.77 546.8 1024.69 547.9 1024.61L680.44 1024.61L680.44 1357.31C393 1316.26 172.12 1069.08 172.12 770.34C172.12 533.87 310.51 329.79 510.68 234.53L510.68 719.79L510.68 719.9C510.68 720.02 510.83 720.02 510.83 720.14C510.95 721.98 511.07 723.63 511.3 725.39C511.5 726.22 511.62 726.96 511.89 727.63C512.01 728.65 512.32 729.63 512.68 730.57C513.22 732.18 513.93 733.79 514.72 735.24C514.75 735.47 514.83 735.55 514.95 735.75C520.29 745.51 530.01 752.53 541.62 753.55C542.57 753.63 543.62 753.63 544.72 753.63C545.7 753.63 546.8 753.63 547.9 753.55L716.69 753.55C734.42 754.77 748.26 769.32 748.26 787.24L748.26 549.94C748.26 531.28 733.12 516.1 714.37 516.1L626.15 516.1L625.96 515.98C609.91 514.38 597.13 501.55 595.64 485.43L595.64 24.02C257.01 102.18 4.59 405.36 4.59 767.71C4.59 1188.22 344.99 1529.27 765.21 1530.76L767.91 1530.76C1189.47 1530.76 1531.19 1189.12 1531.19 767.71C1531.19 403.59 1276.19 99.04 934.86 22.85Z" />
					</g>
				</g>
			</g>
		</g>
	</g>
</svg>