<svg version="1.2" xmlns="http://www.w3.org/2000/svg" viewBox="0 0 1536 1536" width="1536" height="1536">
	<title>Bank-of-Beijing_Company-Logo-svg</title>
	<style>
		.s0 { fill: #e50112 } 
	</style>
	<g id="#e50112ff">
		<path id="Layer" class="s0" d="m602.5 17c148.9-28.9 307.2-21.1 448.8 35.7 141.3 55.7 261.4 157.8 350.1 280 132.8 184.2 166.1 430.3 103.8 646.9-49-59.6-108-110.6-174.9-149.1 13.6-130.2-15.2-265.8-89.6-374.2-80.3-116.7-201.3-209.2-341.2-239.5-146.3-32.2-307.3-10.4-433.4 73.2-120.7 79-215 202.2-247.7 343.9-33.5 146.8-12.5 308.6 71 435.5 72.4 109.2 179.3 199 305.9 237 90.5 29.3 187.6 29.4 281.3 19.9 74.3-9.9 156.2-30.8 202.7-94.6 21.8-28 23.6-69.4 2.6-98.5-26.9-37.6-73.2-53.9-115.9-65.9-169.4-41.5-346.1-36.2-518-15.1-0.3-82.9-0.1-165.9-0.2-248.9 145.3-20.6 293-16.4 438.2 2.1 28.7 3.6 62.1 0.6 83.7-20.8 14.3-18.9 22-46.3 10.3-68.4-13.5-30-45.2-45.1-74-56.8-54.8-19.7-113.2-25.5-170.9-30.9-95.7-8.6-192.1-4.9-287.2 7.9-0.2-81.5 0.1-162.8-0.1-244.2 146.1-11.5 294.5-13.9 439.1 13.2 107.5 20.6 212.1 74.6 277.4 164.5 41.4 58 47.4 140.6 8.5 201.3-18.9 32.2-49.7 54.1-79.7 74.8 80.5 23.6 164.6 53.1 222.3 117.1 74.6 81.1 82.1 211.7 24.7 304.3-48.3 79.4-126.4 134.7-206.3 179.1-161 88.6-354.5 108.7-533.1 72.2-184.3-37.5-346.1-153.8-456.6-304-188.6-254-191.8-630.5-5.5-886.6 111.9-153.4 276-273.2 463.9-311.1z"/>
	</g>
</svg>