<svg version="1.2" xmlns="http://www.w3.org/2000/svg" viewBox="0 0 1453 1588" width="1453" height="1588">
	<title>Bank_of_Communications_2-svg</title>
	<style>
		.s0 { fill: #003c78 } 
	</style>
	<g id="Layer">
		<path id="Layer" class="s0" d="m1452.2 816.8c0 107.7-32.4 202.5-91.7 294.2-65.5 101.1-256.2 324.5-256.2 324.5 62.8-80.5 102.3-179 109.3-286l-307.8 0.2c-14.9 119.4-116.7 211.9-240.3 211.9-133.6 0-242.1-108.4-242.1-242.1 0-133.6 108.5-242.1 242.1-242.1 112.6 0 207.2 77 234.3 181.1l311.5 0.1c-29.6-265.7-261.5-472.6-543.2-472.6-302 0-546.8 237.3-546.8 530.1 0 205.6 120.9 383.7 297.3 471.7l-86.1-26.9c-193.2-64-332.5-245.6-332.5-459.5v-720.3l451.4-380.9v574.4l255.9-165.8c75.3-48.3 164.8-76.2 260.8-76.2 267.4 0 484.1 216.7 484.1 484.2z"/>
	</g>
</svg>