<svg version="1.2" xmlns="http://www.w3.org/2000/svg" viewBox="0 0 1531 1531" width="1531" height="1531">
	<title>China_Citic_Bank_logo-svg</title>
	<style>
		.s0 { fill: #d91920 } 
	</style>
	<g id="layer1">
		<g id="g23160">
			<g id="g12467">
				<path id="path12469" class="s0" d="m989 328.2c21.6-17.2 48.9-29.9 62.6-36.2v1061.2c-41.2 20.1-84.7 35.9-130.1 47.1v-927.3c0-64.3 23-109.3 67.5-144.8z"/>
			</g>
			<g id="g12471">
				<path id="path12473" class="s0" d="m608.8 473v927.4c-45.4-11.2-89-27.1-130.1-47.1v-1061.3c13.6 6.3 40.9 19 62.5 36.2 44.5 35.5 67.6 80.6 67.6 144.8z"/>
			</g>
			<g id="g12475">
				<path id="path12477" class="s0" d="m1052.3 201.9c0 34.6-48 27.3-108.3 75.2-55.5 44.4-84.4 106.7-84.4 176.7v958.5c-30.8 4.5-62.4 6.8-94.6 6.8-32 0-63.5-2.3-94.4-6.8v-958.5c0-70-28.8-132.3-84.5-176.7-60.1-47.9-108.2-40.6-108.2-75.2 0-19.5 16.8-31.7 29.1-38.1 79.1-34 166.4-52.9 258-52.9 92.1 0 179.7 19.1 259.2 53.4 12.1 6.5 28.1 18.7 28.1 37.6z"/>
			</g>
			<g id="g12479">
				<path id="path12481" fill-rule="evenodd" class="s0" d="m765 1530.1c-423 0-765-342-765-765 0-423.1 342-765.1 765-765.1 423 0 765 342 765 765.1 0 423-342 765-765 765zm701.6-765c0-388.1-313.6-701.7-701.6-701.7-388 0-701.6 313.6-701.6 701.7 0 388 313.6 701.6 701.6 701.6 388 0 701.6-313.6 701.6-701.6z"/>
			</g>
			<g id="g12483">
				<path id="path12485" class="s0" d="m414.8 212.5v513.1c-74.5-1.9-101.8-47-110.2-64.5-6.8-14.4-11.2-29.5-24.1-29.5-21.6 0-39.1 62.4-39.1 139.5 0 77.1 17.5 139.5 39.1 139.5 12.9 0 17.3-15.1 24.1-29.5 8.4-17.5 35.7-62.6 110.2-64.6v501.1c-182.6-116.1-303.9-320.1-303.9-552.5 0-232.5 121.3-436.6 303.9-552.6z"/>
			</g>
			<g id="g12487">
				<path id="path12489" class="s0" d="m1417 816.8c-16.4 210.6-132.7 393.3-301.6 500.6v-1104.7c172.1 109.4 289.6 297 302.5 512.8-71.1-3.6-97.5-47.2-105.7-64.4-6.8-14.4-11.2-29.5-24.1-29.5-21.6 0-39.1 62.5-39.1 139.5 0 77.1 17.5 139.5 39.1 139.5 12.9 0 17.3-15.1 24.1-29.5 8.1-17.1 34.4-60.5 104.8-64.3z"/>
			</g>
		</g>
	</g>
</svg>