<?xml version="1.0" encoding="UTF-8"?>
<svg id="logosandtypes_com" data-name="logosandtypes com" xmlns="http://www.w3.org/2000/svg" viewBox="0 0 150 150">
  <defs>
    <style>
      .cls-1 {
        fill: #a30030;
      }

      .cls-2 {
        fill: none;
      }
    </style>
  </defs>
  <path class="cls-2" d="M0,0H150V150H0V0Z"/>
  <g>
    <path class="cls-1" d="M73.34,9.22c25.72-.31,43.78,11.94,54.5,26.64,4.13,5.66,8.42,12.55,10.26,20.51h-28.02c-5.66-13.17-11.33-26.33-16.84-39.34h0c-5.97,14.85-11.94,29.7-17.76,44.55h-.15c-6.43-14.85-12.71-29.55-19.14-44.24h0c-11.02,27.86-22.2,55.57-33.22,83.43,4.9,7.04,9.8,13.93,14.85,20.97,25.87,0,51.59,.15,77.46,.15,3.37-5.36,6.58-10.72,9.95-16.23,.92-1.38,3.37-4.44,3.67-5.97-.46-1.22-1.07-2.3-1.53-3.52h9.95c-.31,1.53-1.22,3.21-1.84,4.59-2.14,5.05-4.75,9.49-7.81,13.63-8.88,12.09-21.13,20.51-37.97,24.65-2.3,.61-4.9,.92-7.5,1.38-1.22,.15-2.6,.15-3.83,.31-1.38,.31-3.52,.31-5.05,0-1.38,0-2.76-.15-4.13-.15-3.21-.46-6.12-.77-9.03-1.53-9.19-2.3-16.84-5.97-23.58-10.72-2.14-1.53-3.98-3.37-5.82-4.9-1.84-1.38-3.52-3.21-5.05-5.05-5.21-6.58-9.19-12.86-12.55-21.59-1.38-3.67-2.14-7.65-2.91-11.94-1.84-9.03-.46-20.36,1.84-27.71C17.77,37.55,30.32,22.85,48.08,15.04c4.75-2.14,9.95-3.52,15.62-4.75,2.3-.31,4.75-.61,7.04-.92,.92,0,1.68-.15,2.6-.15"/>
    <path class="cls-1" d="M87.88,56.84c6.28,14.7,12.71,29.24,18.98,43.94H33.84c5.66-14.39,11.33-28.78,17.15-43.02v.15c6.28,14.08,12.55,28.17,18.98,42.25h0c5.97-14.54,11.94-28.93,17.91-43.32"/>
    <path class="cls-1" d="M111.61,59.75h27.56c.15,.92,.31,1.84,.61,2.6h-26.94c-.46-.77-.77-1.68-1.22-2.6"/>
    <path class="cls-1" d="M140.24,65.56c.15,.92,.15,1.84,.31,2.76h-25.26c-.31-.92-.77-1.84-1.22-2.76h26.18Z"/>
    <path class="cls-1" d="M140.85,74.29h-22.96c-.31-.92-.77-1.84-1.07-2.76h17.76c1.07,0,5.82-.31,6.28,.15v2.6"/>
    <path class="cls-1" d="M140.85,77.81c0,.92-.15,1.84-.15,2.76h-20.21c-.31-.92-.77-1.84-1.22-2.6h21.59v-.15Z"/>
    <path class="cls-1" d="M140.24,84.24c-.15,.92-.31,1.84-.46,2.76h-16.53c-.46-.92-.77-1.84-1.22-2.6h18.22v-.15Z"/>
    <path class="cls-1" d="M124.78,90.36h14.24c-.31,.92-.46,1.84-.77,2.76h-12.4c-.31-.92-.61-1.84-1.07-2.76"/>
  </g>
</svg>