<?xml version="1.0" encoding="UTF-8"?>
<svg version="1.1" xmlns="http://www.w3.org/2000/svg" width="402" height="264">
<path d="M0 0 C2.19644214 1.84615986 4.25492476 3.69850071 6.3125 5.6875 C7.46790121 6.78084558 8.62414418 7.87330235 9.78125 8.96484375 C10.33425781 9.48933105 10.88726562 10.01381836 11.45703125 10.55419922 C14.21799898 13.14129588 17.09965668 15.57180559 20 18 C17.59041194 20.96035105 15.26961423 23.74386649 12.5 26.375 C6.67898621 32.48706448 3.07000711 39.1019012 2.96875 47.6328125 C3.58005958 58.60581945 8.19081457 67.43059333 16.08203125 74.99609375 C27.0165307 84.29857836 40.18295688 90.37522279 54 94 C54.84159668 94.22316895 55.68319336 94.44633789 56.55029297 94.67626953 C71.64032798 98.5202349 86.24138544 99.61590718 101.73950195 99.45996094 C102.44990128 99.46159241 103.1603006 99.46322388 103.89222717 99.46490479 C105.83087533 99.46852191 107.76952017 99.44512978 109.70800781 99.41992188 C113.93650979 100.1650213 115.25609548 101.77931671 118 105 C120.41581791 107.31490194 122.864558 109.59412367 125.3125 111.875 C125.98112061 112.49850342 126.64974121 113.12200684 127.33862305 113.7644043 C131.20944745 117.36375727 135.10786177 120.91803815 139.1171875 124.36328125 C141.42630383 126.37058362 143.6778114 128.43725674 145.9375 130.5 C149.92071965 134.11268759 154.04432802 137.41479369 158.3828125 140.58984375 C158.91648437 141.05519531 159.45015625 141.52054688 160 142 C160 142.66 160 143.32 160 144 C156.04415159 144.80440794 152.08492792 145.59094308 148.125 146.375 C147.03574219 146.59671875 145.94648438 146.8184375 144.82421875 147.046875 C128.57951722 150.2394753 112.72095133 151.31225293 96.18505859 151.20581055 C93.23917005 151.18743244 90.29359655 151.18530272 87.34765625 151.18554688 C71.83483493 151.15891577 56.79969052 150.32140842 41.5 147.5625 C40.44449951 147.37334015 40.44449951 147.37334015 39.36767578 147.18035889 C4.48413147 140.8065006 -35.81956871 126.84077126 -57.9765625 97.37109375 C-66.08301975 85.24590344 -69.9493889 71.96459795 -67.57421875 57.38671875 C-64.08895774 44.32233544 -56.42114154 34.29754056 -47 25 C-46.34257813 24.34386719 -45.68515625 23.68773438 -45.0078125 23.01171875 C-35.95729387 14.56327324 -24.92212194 8.74627521 -13.875 3.375 C-12.96210205 2.92471436 -12.0492041 2.47442871 -11.10864258 2.01049805 C-10.2452124 1.60226807 -9.38178223 1.19403809 -8.4921875 0.7734375 C-7.72245605 0.40653809 -6.95272461 0.03963867 -6.15966797 -0.33837891 C-3.6047242 -1.12109399 -2.46189707 -0.99175948 0 0 Z " fill="#A72116" transform="translate(99,61)"/>
<path d="M0 0 C21.50371415 -0.33284841 42.71235168 -0.539155 64 3 C64.98500488 3.16097168 65.97000977 3.32194336 66.98486328 3.48779297 C102.52165378 9.53351922 144.33313427 23.51225171 166.9765625 53.62890625 C172.34252719 61.65501939 176.27956614 70.27414285 177 80 C177.0515625 80.66128906 177.103125 81.32257813 177.15625 82.00390625 C177.75052657 95.84559797 171.8803631 108.79750325 162.77539062 118.984375 C160.5634209 121.37058533 158.29712125 123.69584315 156 126 C155.23042969 126.77214844 154.46085938 127.54429687 153.66796875 128.33984375 C153.11753906 128.88769531 152.56710937 129.43554688 152 130 C147.53966242 128.58080168 144.67150822 126.13383357 141.375 122.9375 C137.50427013 119.28237631 133.59139497 115.7749192 129.4375 112.4375 C124.57495208 108.52632015 119.9842762 104.40809132 115.41015625 100.1640625 C113.34279164 98.30779022 111.25355413 96.6208858 109 95 C109.99 93.02 109.99 93.02 111 91 C111.66 91 112.32 91 113 91 C113.2475 90.443125 113.495 89.88625 113.75 89.3125 C115 87 115 87 116.875 84.8125 C122.97621007 76.73736903 124.1413301 69.03904637 123 59 C119.65482495 46.40861077 109.40795757 37.48968328 98.6875 31 C80.18145618 20.51036402 57.85777054 14.83605339 36.640625 14.90234375 C35.42246094 14.90427734 34.20429688 14.90621094 32.94921875 14.90820312 C30.46708312 14.92786101 27.98502432 14.97509312 25.50390625 15.04882812 C18.6514412 15.00877652 14.62922285 14.40332398 9.421875 9.75390625 C7.91949505 8.19619092 6.44523145 6.61087821 5 5 C3.3395504 3.32713937 1.67446177 1.65883493 0 0 Z " fill="#A72116" transform="translate(174,44)"/>
<path d="M0 0 C2.41191855 1.74046869 4.50848816 3.44256677 6.6875 5.4375 C7.30109375 5.98156494 7.9146875 6.52562988 8.546875 7.08618164 C10.37559834 8.71232329 12.18903538 10.35413033 14 12 C14.96550781 12.86625 15.93101562 13.7325 16.92578125 14.625 C18.58045417 16.11144365 20.22821813 17.60563413 21.8671875 19.109375 C23.72583443 20.75696678 25.62634329 22.21871972 27.625 23.6875 C30 26 30 26 30.375 29.3125 C30.189375 30.6428125 30.189375 30.6428125 30 32 C24.60183935 34.79346173 19.2255394 37.18507556 13.51953125 39.26953125 C12.74365158 39.55479172 11.96777191 39.84005219 11.16838074 40.13395691 C9.54331096 40.72890378 7.91726374 41.32118714 6.2902832 41.91088867 C3.80401812 42.81558637 1.32502304 43.73857556 -1.15429688 44.66210938 C-2.74177463 45.24071734 -4.329652 45.81823036 -5.91796875 46.39453125 C-7.02279854 46.80998955 -7.02279854 46.80998955 -8.14994812 47.23384094 C-12.1243185 48.64972101 -14.96862465 49.49227957 -19 48 C-21.07781165 46.34348257 -22.92542395 44.7230982 -24.8125 42.875 C-25.87696677 41.86521307 -26.94207118 40.8560979 -28.0078125 39.84765625 C-28.52118164 39.35668457 -29.03455078 38.86571289 -29.56347656 38.35986328 C-31.39494332 36.62613285 -33.28071072 34.96275338 -35.1875 33.3125 C-35.79980469 32.77496094 -36.41210938 32.23742187 -37.04296875 31.68359375 C-38.50623337 30.42477728 -39.99186196 29.19187385 -41.48828125 27.97265625 C-42.31714844 27.28042969 -43.14601562 26.58820313 -44 25.875 C-44.763125 25.25367187 -45.52625 24.63234375 -46.3125 23.9921875 C-48 22 -48 22 -48.4375 19.4453125 C-47.91519096 16.52597802 -47.23032765 15.88029798 -45 14 C-43.15432739 13.10774231 -43.15432739 13.10774231 -41.06689453 12.37426758 C-40.2824295 12.09420364 -39.49796448 11.81413971 -38.68972778 11.52558899 C-37.84594574 11.23483994 -37.0021637 10.94409088 -36.1328125 10.64453125 C-34.82520462 10.18478157 -34.82520462 10.18478157 -33.49118042 9.71574402 C-31.64843279 9.07033216 -29.8041586 8.42926476 -27.95849609 7.79223633 C-25.13843906 6.81714682 -22.3249462 5.82467586 -19.51171875 4.83007812 C-17.71911729 4.20467541 -15.9261597 3.58029232 -14.1328125 2.95703125 C-13.29307892 2.6602095 -12.45334534 2.36338776 -11.58816528 2.05757141 C-3.84073414 -0.59366009 -3.84073414 -0.59366009 0 0 Z " fill="#A72217" transform="translate(207,83)"/>
</svg>
