<?xml version="1.0" encoding="utf-8" ?>
<svg baseProfile="full" height="1024" version="1.1" viewBox="0 0 1024 1024" width="1024" xmlns="http://www.w3.org/2000/svg" xmlns:ev="http://www.w3.org/2001/xml-events" xmlns:xlink="http://www.w3.org/1999/xlink"><defs /><path d="M 527 161 L 526 162 L 522 162 L 521 163 L 518 163 L 517 164 L 514 164 L 513 165 L 511 165 L 510 166 L 509 166 L 508 167 L 506 167 L 505 168 L 504 168 L 503 169 L 502 169 L 500 171 L 499 171 L 498 172 L 497 172 L 495 174 L 494 174 L 490 178 L 489 178 L 485 182 L 485 183 L 481 187 L 481 188 L 480 189 L 480 190 L 478 192 L 478 193 L 477 194 L 477 195 L 476 196 L 476 198 L 475 199 L 475 201 L 474 202 L 474 205 L 473 206 L 473 224 L 474 225 L 474 229 L 475 230 L 475 232 L 476 233 L 476 235 L 477 236 L 477 237 L 478 238 L 478 239 L 479 240 L 479 241 L 480 242 L 480 243 L 481 244 L 481 245 L 483 247 L 483 248 L 485 250 L 485 251 L 490 256 L 490 257 L 495 262 L 496 262 L 501 267 L 502 267 L 504 269 L 505 269 L 507 271 L 508 271 L 510 273 L 511 273 L 512 274 L 513 274 L 514 275 L 515 275 L 516 276 L 517 276 L 518 277 L 519 277 L 520 278 L 521 278 L 522 279 L 524 279 L 525 280 L 526 280 L 527 281 L 529 281 L 530 282 L 533 282 L 534 283 L 536 283 L 537 284 L 541 284 L 542 285 L 546 285 L 547 286 L 573 286 L 574 285 L 579 285 L 580 284 L 583 284 L 584 283 L 586 283 L 587 282 L 589 282 L 590 281 L 592 281 L 593 280 L 594 280 L 595 279 L 596 279 L 597 278 L 598 278 L 599 277 L 600 277 L 601 276 L 602 276 L 604 274 L 605 274 L 607 272 L 608 272 L 618 262 L 618 261 L 620 259 L 620 258 L 622 256 L 622 255 L 623 254 L 623 253 L 624 252 L 624 251 L 625 250 L 625 248 L 626 247 L 626 244 L 627 243 L 627 239 L 628 238 L 628 225 L 627 224 L 627 220 L 626 219 L 626 216 L 625 215 L 625 214 L 624 213 L 624 211 L 623 210 L 623 209 L 622 208 L 622 207 L 621 206 L 621 205 L 620 204 L 620 203 L 619 202 L 619 201 L 617 199 L 617 198 L 614 195 L 614 194 L 602 182 L 601 182 L 598 179 L 597 179 L 595 177 L 594 177 L 592 175 L 591 175 L 590 174 L 589 174 L 587 172 L 586 172 L 585 171 L 584 171 L 583 170 L 582 170 L 581 169 L 579 169 L 578 168 L 577 168 L 576 167 L 574 167 L 573 166 L 571 166 L 570 165 L 568 165 L 567 164 L 564 164 L 563 163 L 560 163 L 559 162 L 554 162 L 553 161 Z" fill="#38A5E5" stroke="none" /><path d="M 609 66 L 608 67 L 602 67 L 601 68 L 598 68 L 597 69 L 595 69 L 594 70 L 592 70 L 591 71 L 590 71 L 588 73 L 587 73 L 580 80 L 580 81 L 579 82 L 579 83 L 578 84 L 578 86 L 577 87 L 577 90 L 576 91 L 576 99 L 577 100 L 577 103 L 578 104 L 578 106 L 579 107 L 579 109 L 580 110 L 580 111 L 581 112 L 581 113 L 583 115 L 583 116 L 585 118 L 585 119 L 588 122 L 588 123 L 597 132 L 598 132 L 603 137 L 604 137 L 607 140 L 608 140 L 610 142 L 611 142 L 613 144 L 614 144 L 616 146 L 617 146 L 619 148 L 620 148 L 621 149 L 622 149 L 623 150 L 624 150 L 626 152 L 627 152 L 628 153 L 629 153 L 630 154 L 631 154 L 632 155 L 633 155 L 634 156 L 635 156 L 636 157 L 637 157 L 638 158 L 639 158 L 640 159 L 642 159 L 643 160 L 644 160 L 645 161 L 646 161 L 647 162 L 648 162 L 649 163 L 650 163 L 651 164 L 652 164 L 653 165 L 654 165 L 655 166 L 656 166 L 657 167 L 658 167 L 659 168 L 660 168 L 662 170 L 663 170 L 664 171 L 665 171 L 666 172 L 667 172 L 669 174 L 670 174 L 671 175 L 672 175 L 674 177 L 675 177 L 676 178 L 677 178 L 679 180 L 680 180 L 682 182 L 683 182 L 685 184 L 686 184 L 689 187 L 690 187 L 693 190 L 694 190 L 698 194 L 699 194 L 706 201 L 707 201 L 713 207 L 713 208 L 720 215 L 720 216 L 724 220 L 724 221 L 726 223 L 726 224 L 728 226 L 728 227 L 730 229 L 730 230 L 731 231 L 731 232 L 733 234 L 733 235 L 734 236 L 734 237 L 735 238 L 735 239 L 736 240 L 736 242 L 737 243 L 737 244 L 738 245 L 738 247 L 739 248 L 739 250 L 740 251 L 740 253 L 741 254 L 741 257 L 742 258 L 742 261 L 743 262 L 743 267 L 744 268 L 744 293 L 743 294 L 743 298 L 742 299 L 742 302 L 741 303 L 741 305 L 740 306 L 740 307 L 739 308 L 739 310 L 738 311 L 738 312 L 737 313 L 737 314 L 735 316 L 735 317 L 733 319 L 733 320 L 729 324 L 729 325 L 722 332 L 721 332 L 717 336 L 716 336 L 714 338 L 713 338 L 712 339 L 711 339 L 709 341 L 708 341 L 707 342 L 706 342 L 705 343 L 704 343 L 703 344 L 702 344 L 701 345 L 700 345 L 699 346 L 697 346 L 696 347 L 695 347 L 694 348 L 692 348 L 691 349 L 689 349 L 688 350 L 686 350 L 685 351 L 683 351 L 682 352 L 679 352 L 678 353 L 675 353 L 674 354 L 670 354 L 669 355 L 664 355 L 663 356 L 655 356 L 654 357 L 640 357 L 639 358 L 629 358 L 628 357 L 613 357 L 612 356 L 604 356 L 603 355 L 597 355 L 596 354 L 592 354 L 591 353 L 587 353 L 586 352 L 582 352 L 581 351 L 578 351 L 577 350 L 574 350 L 573 349 L 571 349 L 570 348 L 568 348 L 567 347 L 564 347 L 563 346 L 562 346 L 561 345 L 559 345 L 558 344 L 556 344 L 555 343 L 554 343 L 553 342 L 551 342 L 550 341 L 549 341 L 548 340 L 546 340 L 545 339 L 544 339 L 543 338 L 542 338 L 541 337 L 539 337 L 538 336 L 537 336 L 536 335 L 534 335 L 533 334 L 532 334 L 531 333 L 529 333 L 528 332 L 527 332 L 526 331 L 525 331 L 524 330 L 522 330 L 521 329 L 520 329 L 519 328 L 517 328 L 516 327 L 515 327 L 514 326 L 512 326 L 511 325 L 510 325 L 509 324 L 507 324 L 506 323 L 505 323 L 504 322 L 502 322 L 501 321 L 500 321 L 499 320 L 497 320 L 496 319 L 495 319 L 494 318 L 492 318 L 491 317 L 490 317 L 489 316 L 487 316 L 486 315 L 485 315 L 484 314 L 482 314 L 481 313 L 479 313 L 478 312 L 477 312 L 476 311 L 474 311 L 473 310 L 471 310 L 470 309 L 469 309 L 468 308 L 466 308 L 465 307 L 463 307 L 462 306 L 461 306 L 460 305 L 458 305 L 457 304 L 455 304 L 454 303 L 452 303 L 451 302 L 449 302 L 448 301 L 446 301 L 445 300 L 443 300 L 442 299 L 440 299 L 439 298 L 437 298 L 436 297 L 434 297 L 433 296 L 431 296 L 430 295 L 427 295 L 426 294 L 424 294 L 423 293 L 420 293 L 419 292 L 417 292 L 416 291 L 413 291 L 412 290 L 409 290 L 408 289 L 405 289 L 404 288 L 400 288 L 399 287 L 394 287 L 393 286 L 388 286 L 387 285 L 367 285 L 366 286 L 363 286 L 362 287 L 361 287 L 360 288 L 359 288 L 358 289 L 357 289 L 350 296 L 350 297 L 348 299 L 348 300 L 347 301 L 347 302 L 346 303 L 346 304 L 345 305 L 345 306 L 344 307 L 344 308 L 343 309 L 343 311 L 342 312 L 342 315 L 341 316 L 341 323 L 340 324 L 340 330 L 341 331 L 341 338 L 342 339 L 342 342 L 343 343 L 343 345 L 344 346 L 344 348 L 345 349 L 345 351 L 346 352 L 346 353 L 347 354 L 347 355 L 348 356 L 348 357 L 349 358 L 349 359 L 351 361 L 351 362 L 353 364 L 353 365 L 356 368 L 356 369 L 369 382 L 370 382 L 373 385 L 374 385 L 377 388 L 378 388 L 380 390 L 381 390 L 383 392 L 384 392 L 385 393 L 386 393 L 388 395 L 389 395 L 390 396 L 391 396 L 392 397 L 393 397 L 395 399 L 396 399 L 397 400 L 398 400 L 400 402 L 401 402 L 402 403 L 403 403 L 405 405 L 406 405 L 407 406 L 408 406 L 409 407 L 410 407 L 412 409 L 413 409 L 414 410 L 415 410 L 417 412 L 418 412 L 419 413 L 420 413 L 422 415 L 423 415 L 424 416 L 425 416 L 427 418 L 428 418 L 430 420 L 431 420 L 432 421 L 433 421 L 435 423 L 436 423 L 437 424 L 438 424 L 440 426 L 441 426 L 443 428 L 444 428 L 446 430 L 447 430 L 449 432 L 450 432 L 451 433 L 452 433 L 454 435 L 455 435 L 457 437 L 458 437 L 460 439 L 461 439 L 463 441 L 464 441 L 466 443 L 467 443 L 470 446 L 471 446 L 473 448 L 474 448 L 477 451 L 478 451 L 480 453 L 481 453 L 484 456 L 485 456 L 488 459 L 489 459 L 492 462 L 493 462 L 496 465 L 497 465 L 501 469 L 502 469 L 507 474 L 508 474 L 514 480 L 515 480 L 524 489 L 525 489 L 539 503 L 539 504 L 548 513 L 548 514 L 553 519 L 553 520 L 556 523 L 556 524 L 559 527 L 559 528 L 561 530 L 561 531 L 563 533 L 563 534 L 565 536 L 565 537 L 567 539 L 567 540 L 568 541 L 568 542 L 569 543 L 569 544 L 571 546 L 571 547 L 572 548 L 572 549 L 573 550 L 573 551 L 574 552 L 574 553 L 575 554 L 575 555 L 576 556 L 576 558 L 577 559 L 577 560 L 578 561 L 578 563 L 579 564 L 579 566 L 580 567 L 580 569 L 581 570 L 581 572 L 582 573 L 582 576 L 583 577 L 583 580 L 584 581 L 584 585 L 585 586 L 585 591 L 586 592 L 586 598 L 587 599 L 587 607 L 588 608 L 588 621 L 589 622 L 589 645 L 588 646 L 588 657 L 587 658 L 587 665 L 586 666 L 586 671 L 585 672 L 585 677 L 584 678 L 584 681 L 583 682 L 583 685 L 582 686 L 582 689 L 581 690 L 581 692 L 580 693 L 580 695 L 579 696 L 579 698 L 578 699 L 578 701 L 577 702 L 577 704 L 576 705 L 576 706 L 575 707 L 575 708 L 574 709 L 574 711 L 573 712 L 573 713 L 572 714 L 572 715 L 571 716 L 571 717 L 570 718 L 570 719 L 568 721 L 568 722 L 567 723 L 567 724 L 565 726 L 565 727 L 563 729 L 563 730 L 561 732 L 561 733 L 558 736 L 558 737 L 550 745 L 550 746 L 549 747 L 548 747 L 540 755 L 539 755 L 536 758 L 535 758 L 533 760 L 532 760 L 530 762 L 529 762 L 528 763 L 527 763 L 525 765 L 524 765 L 523 766 L 522 766 L 521 767 L 520 767 L 519 768 L 518 768 L 517 769 L 516 769 L 515 770 L 514 770 L 513 771 L 511 771 L 510 772 L 509 772 L 508 773 L 506 773 L 505 774 L 503 774 L 502 775 L 500 775 L 499 776 L 497 776 L 496 777 L 493 777 L 492 778 L 488 778 L 487 779 L 483 779 L 482 780 L 477 780 L 476 781 L 469 781 L 468 782 L 454 782 L 453 783 L 439 783 L 438 782 L 423 782 L 422 781 L 414 781 L 413 780 L 406 780 L 405 779 L 400 779 L 399 778 L 394 778 L 393 777 L 388 777 L 387 776 L 383 776 L 382 775 L 378 775 L 377 774 L 374 774 L 373 773 L 370 773 L 369 772 L 365 772 L 364 771 L 361 771 L 360 770 L 358 770 L 357 769 L 354 769 L 353 768 L 350 768 L 349 767 L 347 767 L 346 766 L 343 766 L 342 765 L 340 765 L 339 764 L 337 764 L 336 763 L 334 763 L 333 762 L 332 762 L 331 761 L 330 761 L 329 760 L 328 760 L 327 759 L 326 759 L 325 758 L 324 758 L 323 757 L 322 757 L 321 756 L 320 756 L 319 755 L 318 755 L 316 753 L 315 753 L 313 751 L 312 751 L 310 749 L 309 749 L 307 747 L 306 747 L 302 743 L 301 743 L 297 739 L 296 739 L 290 733 L 289 733 L 269 713 L 269 712 L 262 705 L 262 704 L 257 699 L 257 698 L 252 693 L 252 692 L 249 689 L 249 688 L 246 685 L 246 684 L 243 681 L 243 680 L 240 677 L 240 676 L 237 673 L 237 672 L 235 670 L 235 669 L 233 667 L 233 666 L 231 664 L 231 663 L 229 661 L 229 660 L 227 658 L 227 657 L 225 655 L 225 654 L 223 652 L 223 651 L 222 650 L 222 649 L 220 647 L 220 646 L 219 645 L 219 644 L 217 642 L 217 641 L 216 640 L 216 639 L 215 638 L 215 637 L 213 635 L 213 634 L 212 633 L 212 632 L 211 631 L 211 630 L 210 629 L 210 628 L 209 627 L 209 626 L 208 625 L 208 624 L 207 623 L 207 622 L 206 621 L 206 620 L 205 619 L 205 618 L 204 617 L 204 615 L 203 614 L 203 613 L 202 612 L 202 610 L 201 609 L 201 608 L 200 607 L 200 605 L 199 604 L 199 602 L 198 601 L 198 600 L 197 599 L 197 597 L 196 596 L 196 593 L 195 592 L 195 590 L 194 589 L 194 586 L 193 585 L 193 582 L 192 581 L 192 579 L 191 578 L 191 574 L 190 573 L 190 569 L 189 568 L 189 563 L 188 562 L 188 556 L 187 555 L 187 547 L 186 546 L 186 504 L 187 503 L 187 494 L 188 493 L 188 486 L 189 485 L 189 480 L 190 479 L 190 475 L 191 474 L 191 470 L 192 469 L 192 465 L 193 464 L 193 461 L 194 460 L 194 457 L 195 456 L 195 453 L 196 452 L 196 449 L 197 448 L 197 446 L 198 445 L 198 443 L 199 442 L 199 439 L 200 438 L 200 436 L 201 435 L 201 433 L 202 432 L 202 430 L 203 429 L 203 428 L 204 427 L 204 425 L 205 424 L 205 422 L 206 421 L 206 419 L 207 418 L 207 417 L 208 416 L 208 414 L 209 413 L 209 412 L 210 411 L 210 410 L 211 409 L 211 407 L 212 406 L 212 405 L 213 404 L 213 403 L 214 402 L 214 401 L 215 400 L 215 398 L 216 397 L 216 396 L 217 395 L 217 394 L 218 393 L 218 392 L 219 391 L 219 390 L 220 389 L 220 388 L 221 387 L 221 386 L 222 385 L 222 384 L 223 383 L 223 382 L 225 380 L 225 379 L 226 378 L 226 377 L 227 376 L 227 375 L 228 374 L 228 373 L 230 371 L 230 370 L 231 369 L 231 368 L 232 367 L 232 366 L 234 364 L 234 363 L 236 361 L 236 360 L 238 358 L 238 357 L 239 356 L 239 355 L 241 353 L 241 352 L 243 350 L 243 349 L 244 348 L 244 347 L 245 346 L 245 345 L 246 344 L 246 343 L 247 342 L 247 341 L 248 340 L 248 339 L 249 338 L 249 337 L 250 336 L 250 335 L 251 334 L 251 332 L 252 331 L 252 330 L 253 329 L 253 327 L 254 326 L 254 324 L 255 323 L 255 321 L 256 320 L 256 317 L 257 316 L 257 312 L 258 311 L 258 304 L 259 303 L 259 294 L 258 293 L 258 287 L 257 286 L 257 283 L 256 282 L 256 280 L 255 279 L 255 277 L 254 276 L 254 275 L 253 274 L 253 273 L 252 272 L 252 271 L 250 269 L 250 268 L 248 266 L 248 265 L 238 255 L 237 255 L 234 252 L 233 252 L 231 250 L 230 250 L 229 249 L 228 249 L 227 248 L 226 248 L 225 247 L 224 247 L 223 246 L 222 246 L 221 245 L 220 245 L 219 244 L 218 244 L 217 243 L 215 243 L 214 242 L 213 242 L 212 241 L 209 241 L 208 240 L 206 240 L 205 239 L 200 239 L 199 238 L 186 238 L 185 239 L 180 239 L 179 240 L 177 240 L 176 241 L 174 241 L 173 242 L 171 242 L 170 243 L 169 243 L 168 244 L 167 244 L 166 245 L 165 245 L 163 247 L 162 247 L 161 248 L 160 248 L 158 250 L 157 250 L 153 254 L 152 254 L 139 267 L 139 268 L 135 272 L 135 273 L 132 276 L 132 277 L 130 279 L 130 280 L 127 283 L 127 284 L 125 286 L 125 287 L 124 288 L 124 289 L 122 291 L 122 292 L 121 293 L 121 294 L 119 296 L 119 297 L 118 298 L 118 299 L 117 300 L 117 301 L 115 303 L 115 304 L 114 305 L 114 306 L 113 307 L 113 308 L 112 309 L 112 310 L 111 311 L 111 312 L 110 313 L 110 314 L 109 315 L 109 316 L 108 317 L 108 318 L 107 319 L 107 320 L 106 321 L 106 322 L 105 323 L 105 325 L 104 326 L 104 327 L 103 328 L 103 329 L 102 330 L 102 331 L 101 332 L 101 334 L 100 335 L 100 336 L 99 337 L 99 339 L 98 340 L 98 341 L 97 342 L 97 344 L 96 345 L 96 346 L 95 347 L 95 349 L 94 350 L 94 351 L 93 352 L 93 354 L 92 355 L 92 357 L 91 358 L 91 359 L 90 360 L 90 362 L 89 363 L 89 365 L 88 366 L 88 368 L 87 369 L 87 371 L 86 372 L 86 374 L 85 375 L 85 377 L 84 378 L 84 380 L 83 381 L 83 383 L 82 384 L 82 386 L 81 387 L 81 389 L 80 390 L 80 392 L 79 393 L 79 396 L 78 397 L 78 400 L 77 401 L 77 404 L 76 405 L 76 408 L 75 409 L 75 412 L 74 413 L 74 417 L 73 418 L 73 423 L 72 424 L 72 429 L 71 430 L 71 436 L 70 437 L 70 444 L 69 445 L 69 454 L 68 455 L 68 469 L 67 470 L 67 529 L 68 530 L 68 543 L 69 544 L 69 553 L 70 554 L 70 561 L 71 562 L 71 569 L 72 570 L 72 575 L 73 576 L 73 581 L 74 582 L 74 587 L 75 588 L 75 592 L 76 593 L 76 597 L 77 598 L 77 602 L 78 603 L 78 606 L 79 607 L 79 610 L 80 611 L 80 614 L 81 615 L 81 618 L 82 619 L 82 622 L 83 623 L 83 626 L 84 627 L 84 629 L 85 630 L 85 633 L 86 634 L 86 636 L 87 637 L 87 639 L 88 640 L 88 642 L 89 643 L 89 646 L 90 647 L 90 649 L 91 650 L 91 652 L 92 653 L 92 654 L 93 655 L 93 657 L 94 658 L 94 660 L 95 661 L 95 663 L 96 664 L 96 665 L 97 666 L 97 668 L 98 669 L 98 671 L 99 672 L 99 673 L 100 674 L 100 676 L 101 677 L 101 678 L 102 679 L 102 680 L 103 681 L 103 683 L 104 684 L 104 685 L 105 686 L 105 687 L 106 688 L 106 690 L 107 691 L 107 692 L 108 693 L 108 694 L 109 695 L 109 696 L 110 697 L 110 698 L 111 699 L 111 700 L 112 701 L 112 703 L 113 704 L 113 705 L 114 706 L 114 707 L 115 708 L 115 709 L 116 710 L 116 711 L 117 712 L 117 713 L 119 715 L 119 716 L 120 717 L 120 718 L 121 719 L 121 720 L 122 721 L 122 722 L 123 723 L 123 724 L 124 725 L 124 726 L 126 728 L 126 729 L 127 730 L 127 731 L 128 732 L 128 733 L 130 735 L 130 736 L 131 737 L 131 738 L 133 740 L 133 741 L 134 742 L 134 743 L 136 745 L 136 746 L 137 747 L 137 748 L 139 750 L 139 751 L 141 753 L 141 754 L 143 756 L 143 757 L 145 759 L 145 760 L 147 762 L 147 763 L 149 765 L 149 766 L 152 769 L 152 770 L 154 772 L 154 773 L 157 776 L 157 777 L 160 780 L 160 781 L 164 785 L 164 786 L 168 790 L 168 791 L 172 795 L 172 796 L 178 802 L 178 803 L 186 811 L 186 812 L 214 840 L 215 840 L 223 848 L 224 848 L 230 854 L 231 854 L 235 858 L 236 858 L 240 862 L 241 862 L 245 866 L 246 866 L 248 868 L 249 868 L 252 871 L 253 871 L 256 874 L 257 874 L 259 876 L 260 876 L 263 879 L 264 879 L 266 881 L 267 881 L 269 883 L 270 883 L 272 885 L 273 885 L 274 886 L 275 886 L 277 888 L 278 888 L 280 890 L 281 890 L 282 891 L 283 891 L 285 893 L 286 893 L 287 894 L 288 894 L 290 896 L 291 896 L 292 897 L 293 897 L 294 898 L 295 898 L 297 900 L 298 900 L 299 901 L 300 901 L 301 902 L 302 902 L 303 903 L 304 903 L 306 905 L 307 905 L 308 906 L 309 906 L 310 907 L 311 907 L 312 908 L 313 908 L 314 909 L 315 909 L 316 910 L 317 910 L 318 911 L 319 911 L 320 912 L 321 912 L 322 913 L 323 913 L 324 914 L 326 914 L 327 915 L 328 915 L 329 916 L 330 916 L 331 917 L 332 917 L 333 918 L 334 918 L 335 919 L 337 919 L 338 920 L 339 920 L 340 921 L 341 921 L 342 922 L 344 922 L 345 923 L 346 923 L 347 924 L 349 924 L 350 925 L 351 925 L 352 926 L 354 926 L 355 927 L 356 927 L 357 928 L 359 928 L 360 929 L 362 929 L 363 930 L 365 930 L 366 931 L 367 931 L 368 932 L 370 932 L 371 933 L 373 933 L 374 934 L 377 934 L 378 935 L 380 935 L 381 936 L 383 936 L 384 937 L 386 937 L 387 938 L 390 938 L 391 939 L 393 939 L 394 940 L 397 940 L 398 941 L 401 941 L 402 942 L 405 942 L 406 943 L 409 943 L 410 944 L 413 944 L 414 945 L 418 945 L 419 946 L 422 946 L 423 947 L 427 947 L 428 948 L 432 948 L 433 949 L 438 949 L 439 950 L 444 950 L 445 951 L 452 951 L 453 952 L 459 952 L 460 953 L 469 953 L 470 954 L 481 954 L 482 955 L 508 955 L 509 956 L 514 956 L 515 955 L 541 955 L 542 954 L 553 954 L 554 953 L 562 953 L 563 952 L 571 952 L 572 951 L 577 951 L 578 950 L 584 950 L 585 949 L 589 949 L 590 948 L 595 948 L 596 947 L 600 947 L 601 946 L 605 946 L 606 945 L 609 945 L 610 944 L 613 944 L 614 943 L 617 943 L 618 942 L 621 942 L 622 941 L 625 941 L 626 940 L 629 940 L 630 939 L 632 939 L 633 938 L 636 938 L 637 937 L 639 937 L 640 936 L 642 936 L 643 935 L 645 935 L 646 934 L 648 934 L 649 933 L 651 933 L 652 932 L 654 932 L 655 931 L 657 931 L 658 930 L 660 930 L 661 929 L 663 929 L 664 928 L 665 928 L 666 927 L 668 927 L 669 926 L 671 926 L 672 925 L 673 925 L 674 924 L 676 924 L 677 923 L 678 923 L 679 922 L 680 922 L 681 921 L 683 921 L 684 920 L 685 920 L 686 919 L 687 919 L 688 918 L 690 918 L 691 917 L 692 917 L 693 916 L 694 916 L 695 915 L 696 915 L 697 914 L 698 914 L 699 913 L 700 913 L 701 912 L 703 912 L 704 911 L 705 911 L 706 910 L 707 910 L 708 909 L 709 909 L 711 907 L 712 907 L 713 906 L 714 906 L 715 905 L 716 905 L 717 904 L 718 904 L 719 903 L 720 903 L 721 902 L 722 902 L 723 901 L 724 901 L 726 899 L 727 899 L 728 898 L 729 898 L 730 897 L 731 897 L 733 895 L 734 895 L 735 894 L 736 894 L 738 892 L 739 892 L 740 891 L 741 891 L 743 889 L 744 889 L 745 888 L 746 888 L 748 886 L 749 886 L 751 884 L 752 884 L 754 882 L 755 882 L 757 880 L 758 880 L 760 878 L 761 878 L 764 875 L 765 875 L 767 873 L 768 873 L 771 870 L 772 870 L 775 867 L 776 867 L 779 864 L 780 864 L 783 861 L 784 861 L 788 857 L 789 857 L 794 852 L 795 852 L 801 846 L 802 846 L 811 837 L 812 837 L 834 815 L 834 814 L 843 805 L 843 804 L 849 798 L 849 797 L 854 792 L 854 791 L 858 787 L 858 786 L 862 782 L 862 781 L 865 778 L 865 777 L 868 774 L 868 773 L 870 771 L 870 770 L 873 767 L 873 766 L 875 764 L 875 763 L 877 761 L 877 760 L 879 758 L 879 757 L 881 755 L 881 754 L 883 752 L 883 751 L 885 749 L 885 748 L 887 746 L 887 745 L 888 744 L 888 743 L 890 741 L 890 740 L 891 739 L 891 738 L 893 736 L 893 735 L 894 734 L 894 733 L 896 731 L 896 730 L 897 729 L 897 728 L 898 727 L 898 726 L 899 725 L 899 724 L 901 722 L 901 721 L 902 720 L 902 719 L 903 718 L 903 717 L 904 716 L 904 715 L 905 714 L 905 713 L 906 712 L 906 711 L 907 710 L 907 709 L 908 708 L 908 707 L 909 706 L 909 705 L 910 704 L 910 703 L 911 702 L 911 701 L 912 700 L 912 699 L 913 698 L 913 697 L 914 696 L 914 695 L 915 694 L 915 693 L 916 692 L 916 690 L 917 689 L 917 688 L 918 687 L 918 686 L 919 685 L 919 683 L 920 682 L 920 681 L 921 680 L 921 679 L 922 678 L 922 676 L 923 675 L 923 674 L 924 673 L 924 671 L 925 670 L 925 669 L 926 668 L 926 666 L 927 665 L 927 663 L 928 662 L 928 661 L 929 660 L 929 658 L 930 657 L 930 655 L 931 654 L 931 652 L 932 651 L 932 649 L 933 648 L 933 646 L 934 645 L 934 643 L 935 642 L 935 640 L 936 639 L 936 637 L 937 636 L 937 633 L 938 632 L 938 630 L 939 629 L 939 627 L 940 626 L 940 623 L 941 622 L 941 619 L 942 618 L 942 615 L 943 614 L 943 611 L 944 610 L 944 607 L 945 606 L 945 602 L 946 601 L 946 598 L 947 597 L 947 593 L 948 592 L 948 588 L 949 587 L 949 582 L 950 581 L 950 576 L 951 575 L 951 569 L 952 568 L 952 562 L 953 561 L 953 554 L 954 553 L 954 544 L 955 543 L 955 530 L 956 529 L 956 474 L 955 473 L 955 461 L 954 460 L 954 451 L 953 450 L 953 443 L 952 442 L 952 435 L 951 434 L 951 429 L 950 428 L 950 423 L 949 422 L 949 417 L 948 416 L 948 412 L 947 411 L 947 407 L 946 406 L 946 402 L 945 401 L 945 398 L 944 397 L 944 394 L 943 393 L 943 390 L 942 389 L 942 386 L 941 385 L 941 382 L 940 381 L 940 378 L 939 377 L 939 375 L 938 374 L 938 371 L 937 370 L 937 368 L 936 367 L 936 365 L 935 364 L 935 362 L 934 361 L 934 359 L 933 358 L 933 355 L 932 354 L 932 353 L 931 352 L 931 350 L 930 349 L 930 347 L 929 346 L 929 344 L 928 343 L 928 341 L 927 340 L 927 339 L 926 338 L 926 336 L 925 335 L 925 334 L 924 333 L 924 331 L 923 330 L 923 328 L 922 327 L 922 326 L 921 325 L 921 324 L 920 323 L 920 321 L 919 320 L 919 319 L 918 318 L 918 317 L 917 316 L 917 314 L 916 313 L 916 312 L 915 311 L 915 310 L 914 309 L 914 308 L 913 307 L 913 306 L 912 305 L 912 304 L 911 303 L 911 302 L 910 301 L 910 299 L 909 298 L 909 297 L 908 296 L 908 295 L 907 294 L 907 293 L 906 292 L 906 291 L 904 289 L 904 288 L 903 287 L 903 286 L 902 285 L 902 284 L 901 283 L 901 282 L 900 281 L 900 280 L 899 279 L 899 278 L 897 276 L 897 275 L 896 274 L 896 273 L 895 272 L 895 271 L 893 269 L 893 268 L 892 267 L 892 266 L 890 264 L 890 263 L 889 262 L 889 261 L 887 259 L 887 258 L 886 257 L 886 256 L 884 254 L 884 253 L 882 251 L 882 250 L 880 248 L 880 247 L 878 245 L 878 244 L 876 242 L 876 241 L 874 239 L 874 238 L 871 235 L 871 234 L 869 232 L 869 231 L 866 228 L 866 227 L 863 224 L 863 223 L 860 220 L 860 219 L 856 215 L 856 214 L 851 209 L 851 208 L 847 204 L 847 203 L 839 195 L 839 194 L 806 161 L 805 161 L 798 154 L 797 154 L 791 148 L 790 148 L 786 144 L 785 144 L 782 141 L 781 141 L 777 137 L 776 137 L 773 134 L 772 134 L 770 132 L 769 132 L 766 129 L 765 129 L 763 127 L 762 127 L 759 124 L 758 124 L 756 122 L 755 122 L 753 120 L 752 120 L 750 118 L 749 118 L 748 117 L 747 117 L 745 115 L 744 115 L 742 113 L 741 113 L 740 112 L 739 112 L 737 110 L 736 110 L 735 109 L 734 109 L 732 107 L 731 107 L 730 106 L 729 106 L 728 105 L 727 105 L 725 103 L 724 103 L 723 102 L 722 102 L 721 101 L 720 101 L 719 100 L 718 100 L 717 99 L 716 99 L 714 97 L 713 97 L 712 96 L 711 96 L 710 95 L 709 95 L 708 94 L 707 94 L 706 93 L 705 93 L 704 92 L 703 92 L 702 91 L 701 91 L 700 90 L 699 90 L 698 89 L 696 89 L 695 88 L 694 88 L 693 87 L 692 87 L 691 86 L 690 86 L 689 85 L 687 85 L 686 84 L 685 84 L 684 83 L 682 83 L 681 82 L 680 82 L 679 81 L 678 81 L 677 80 L 675 80 L 674 79 L 672 79 L 671 78 L 669 78 L 668 77 L 667 77 L 666 76 L 664 76 L 663 75 L 660 75 L 659 74 L 657 74 L 656 73 L 654 73 L 653 72 L 650 72 L 649 71 L 646 71 L 645 70 L 642 70 L 641 69 L 637 69 L 636 68 L 631 68 L 630 67 L 621 67 L 620 66 Z" fill="#38A5E5" stroke="none" /></svg>