<svg version="1.2" baseProfile="tiny-ps" xmlns="http://www.w3.org/2000/svg" viewBox="0 0 1528 1527" width="1528" height="1527">
	<title>Industrial_and_Commercial_Bank_of_China_logo-svg</title>
	<style>
		tspan { white-space:pre }
		.shp0 { fill: #cb0202 } 
	</style>
	<g id="layer1">
		<g id="layer1-0">
			<g id="g3518">
				<path id="path3520" fill-rule="evenodd" class="shp0" d="M0.31 763.46C0.31 341.65 342 0 764.01 0C1185.91 0 1527.84 341.65 1527.84 763.46C1527.84 1185.28 1185.91 1527.06 764.01 1527.06C342 1527.06 0.31 1185.28 0.31 763.46ZM118.54 763.46C118.54 1119.82 407.55 1408.84 764.01 1408.84C1120.39 1408.84 1409.45 1119.82 1409.45 763.46C1409.45 407.24 1120.39 118.01 764.01 118.01C407.55 118.01 118.54 407.24 118.54 763.46ZM1058.47 1056.62L1058.47 939.33L823.86 939.33L823.86 587.31L1058.47 587.31L1058.47 469.73L795.28 469.73L795.28 352.33L1175.97 352.33L1175.97 704.66L941.83 704.66L941.83 821.98L1175.97 821.98L1175.97 1173.91L795.28 1173.91L795.28 1056.62L1058.47 1056.62ZM472.22 469.41L472.22 586.73L706.81 586.73L706.81 939.06L472.22 939.06L472.22 1056.35L736.07 1056.35L736.07 1173.7L354.91 1173.7L354.91 821.63L588.47 821.63L588.47 704.18L354.91 704.18L354.91 352.06L736.07 352.06L736.07 469.41L472.22 469.41Z" />
			</g>
		</g>
		<g id="g2931">
		</g>
	</g>
</svg>