<svg version="1.2" xmlns="http://www.w3.org/2000/svg" viewBox="0 0 1551 1457" width="1551" height="1457">
	<title>601658</title>
	<style>
		.s0 { fill: #006346 } 
	</style>
	<path class="s0" d="m897.6 0.9l-40.2 217.7h-354l-81.5 436.6h-352.9l-68.4 364.5h351.7l-81.4 436.6h740.6l82-436h264.9l27.2-145.7-342.9-0.6-82 437.2h-584.8l13-72h507.5l82-438.3 420.8 0.6 28.3-145.1h-497.5l-82.6 436.5h-431.4l13.6-73.2 354.1 1.2 68.4-364.6-353.5-1.1 13.6-73.2h508.1l41.3-218.3 419.6 0.1 27.7-145.8-496.9 0.6-41.3 218.3h-430.7l13.5-72h353.5l40.1-218.8h576l27.7-145.2zm-426 800h275.5l-13.5 72h-276.2zm-352.3 0h275l-13.6 73.1h-275z"/>
</svg>