<svg version="1.2" xmlns="http://www.w3.org/2000/svg" viewBox="0 0 1543 1543" width="1543" height="1543">
	<title>wechat-seeklogo</title>
	<style>
		.s0 { fill: #2dc100 } 
		.s1 { fill: #ffffff } 
	</style>
	<path id="Layer" class="s0" d="m0 231c0-127.6 103.4-231 231-231h1081c127.6 0 231 103.4 231 231v1081c0 127.6-103.4 231-231 231h-1081c-127.6 0-231-103.4-231-231z"/>
	<g id="Layer">
		<path id="Layer" fill-rule="evenodd" class="s1" d="m1032.8 575.4c-124.5 6.5-232.8 44.3-320.7 129.6-88.9 86.1-129.5 191.7-118.4 322.6-48.7-6-93-12.6-137.5-16.4-15.5-1.3-33.7 0.6-46.7 7.9-43.3 24.5-84.9 52.1-134 82.8 9-40.9 14.8-76.6 25.2-111 7.6-25.3 4.1-39.3-19.2-55.8-149.5-105.5-212.5-263.5-165.3-426.1 43.5-150.4 150.7-241.7 296.3-289.2 198.7-64.9 422 1.3 542.9 159 43.5 57 70.3 121 77.4 196.6zm-573.2-50.7c1.2-29.7-24.6-56.5-55.2-57.4-31.4-0.9-57.1 23-58 53.9-1 31.3 23 56.4 54.5 57.2 31.3 0.8 57.6-23.2 58.7-53.7zm299.1-57.4c-30.8 0.5-56.7 26.7-56.2 56.6 0.6 30.9 26 55.2 57.6 54.8 31.7-0.4 55.8-24.9 55.5-56.5-0.3-31-25.6-55.5-56.9-54.9z"/>
		<path id="Layer" fill-rule="evenodd" class="s1" d="m1312.6 1351.8c-39.4-17.5-75.6-43.9-114.1-47.9-38.4-4-78.7 18.1-118.8 22.2-122.3 12.5-231.9-21.5-322.1-105.1-171.8-158.9-147.3-402.5 51.4-532.7 176.7-115.7 435.7-77.1 560.2 83.4 108.7 140.2 95.9 326.1-36.8 443.8-38.4 34.1-52.2 62.1-27.6 107 4.7 8.4 5.1 18.9 7.8 29.3zm-448.9-434.6c25.1 0 45.8-19.6 46.7-44.4 1-26.2-20.1-48.3-46.4-48.4-26-0.1-47.8 22.2-46.9 48.1 0.9 24.7 21.7 44.7 46.6 44.7zm289.4-92.7c-24.4-0.2-45.1 19.8-46.1 44.4-1 26.3 19.4 48 45.4 48 25.2 0.1 45.2-18.9 46-44 1.1-26.4-19.4-48.2-45.3-48.4z"/>
	</g>
</svg>