<svg width="300" height="300" viewBox="0 0 40 40" fill="none" xmlns="http://www.w3.org/2000/svg">
  <path d="M20 40C8.954 40 0 31.046 0 20S8.954 0 20 0s20 8.954 20 20-8.954 20-20 20Z" fill="#00CF9A"/>
  <path d="M15.99 29.635h11.853a1.479 1.479 0 1 0 0-2.96H15.99a1.48 1.48 0 1 0 0 2.96Z" fill="#fff"/>
  <path d="m17.104 29.132 11.823-13.338a1.483 1.483 0 0 0-2.218-1.966L14.886 27.17a1.478 1.478 0 0 0 .126 2.088c.612.542 1.55.486 2.092-.126Zm6.886-18.728H12.14a1.48 1.48 0 1 0 0 2.96h11.845c.816 0 1.48-.664 1.48-1.48a1.475 1.475 0 0 0-1.476-1.48Z" fill="#fff"/>
  <path d="M22.869 10.903 11.05 24.24a1.483 1.483 0 0 0 2.218 1.966l11.819-13.338a1.483 1.483 0 0 0-2.218-1.966Z" fill="#fff"/>
</svg>
