<svg xmlns="http://www.w3.org/2000/svg" viewBox="0 0 64 64" width="64" height="64">
<defs>
    <linearGradient id="d3dBody" x1="0" y1="0" x2="0" y2="1">
      <stop offset="0" stop-color="#e5e7eb"/>
      <stop offset="1" stop-color="#6b7280"/>
    </linearGradient>
  </defs>
  <ellipse cx="32" cy="56" rx="18" ry="2.5" fill="rgba(0,0,0,0.18)"/>
  <path d="M6 20 l10 -4 l10 4 l-10 4 z" fill="#94a3b8"/>
  <path d="M38 20 l10 -4 l10 4 l-10 4 z" fill="#94a3b8"/>
  <path d="M6 44 l10 -4 l10 4 l-10 4 z" fill="#94a3b8"/>
  <path d="M38 44 l10 -4 l10 4 l-10 4 z" fill="#94a3b8"/>
  <path d="M16 20 l16 -4 l16 4 l-16 4 z" fill="#cbd5e1" opacity="0.5"/>
  <path d="M16 44 l16 -4 l16 4 l-16 4 z" fill="#cbd5e1" opacity="0.5"/>
  <ellipse cx="32" cy="32" rx="14" ry="8" fill="url(#d3dBody)"/>
  <ellipse cx="32" cy="30" rx="14" ry="7" fill="rgba(255,255,255,0.3)"/>
  <circle cx="32" cy="34" r="4" fill="#1e293b"/>
  <circle cx="32" cy="34" r="2.5" fill="#38bdf8"/>
</svg>
